<svg xmlns="http://www.w3.org/2000/svg" viewBox="0 0 512.019 512.019"><path d="M508.904 216.458L295.571 3.124a10.668 10.668 0 00-7.552-3.115H10.686a10.667 10.667 0 00-7.552 18.219L493.8 508.895a10.668 10.668 0 007.552 3.115 10.672 10.672 0 0010.667-10.667V224.01a10.663 10.663 0 00-3.115-7.552z" fill="#009688"/><g fill="#fafafa"><path d="M224.019 170.676c-5.891.001-10.668-4.773-10.669-10.664 0-.717.072-1.433.216-2.136l14.421-72.128-39.083 39.147c-4.237 4.093-10.99 3.975-15.083-.262-3.992-4.134-3.992-10.687 0-14.82l64-64c4.165-4.166 10.919-4.167 15.085-.002a10.666 10.666 0 012.92 9.623l-14.421 72.128 39.104-39.083c4.092-4.237 10.845-4.355 15.083-.262s4.355 10.845.262 15.083c-.086.089-.173.176-.262.262l-64 64a10.666 10.666 0 01-7.573 3.114zm64 64a10.663 10.663 0 01-7.552-3.115l-32-32c-4.164-4.165-4.164-10.917 0-15.083l64-64c4.165-4.164 10.917-4.164 15.083 0l32 32c4.237 4.093 4.354 10.845.262 15.083-4.093 4.237-10.845 4.354-15.083.262a10.787 10.787 0 01-.262-.262l-24.448-24.469-48.917 48.917 24.448 24.448c4.171 4.16 4.179 10.914.019 15.085a10.664 10.664 0 01-7.55 3.134z"/><path d="M309.352 192.01a10.663 10.663 0 01-7.552-3.115l-21.333-21.333c-4.092-4.237-3.975-10.99.262-15.083 4.134-3.992 10.687-3.992 14.82 0l21.333 21.333c4.159 4.172 4.149 10.926-.024 15.085a10.663 10.663 0 01-7.506 3.113zm64 128c-5.891-.004-10.663-4.784-10.659-10.675.001-1.143.185-2.278.547-3.363l14.592-43.755-43.755 14.592a10.796 10.796 0 01-11.435-3.136 10.668 10.668 0 01-1.472-11.755l42.667-85.333c2.633-5.272 9.042-7.412 14.315-4.779s7.412 9.042 4.779 14.315l-31.147 62.293 39.573-13.184a10.775 10.775 0 0110.923 2.581 10.666 10.666 0 012.581 10.923l-13.184 39.552 62.293-31.147c5.272-2.633 11.681-.494 14.315 4.779 2.633 5.272.494 11.681-4.779 14.315L378.174 318.9a10.666 10.666 0 01-4.822 1.11z"/></g></svg>